<?xml version='1.0' encoding='utf-8'?>
<svg xmlns="http://www.w3.org/2000/svg" enable-background="new 0 0 1920 1920" version="1.1" viewBox="0 0 1920 1920">
<path d="m411.2 20.07c3.89-1.96 8.98-2.96 12.76-0.2 5.59 4.08 7.7 11.13 9.46 17.51 4.1 16.86 4.43 34.34 4.75 51.6 0.2 4.89-2.04 9.41-2.68 14.18 1.57 15.62 3.91 31.17 5.41 46.79-0.77 21-1.92 42-2.72 63-0.06 12.36 0.03 24.72-0.04 37.08-0.7 12-1.93 23.96-2.67 35.96 0.47 8.33 1.48 16.63 2.18 24.95 1 8.48 0.18 17.04-0.47 25.52-3.36 34.25-13.76 67.4-26.66 99.16-1.81 5.53-2.63 11.34-3.99 16.99-8.81 41.69-16.64 83.79-18.78 126.42-0.1 6-0.85 12.07 0.3 18.02 2.1 12.46 4.63 24.95 9.17 36.79 3.37 8.3199 8.37 18.69 18.54 19.52 4.58 4.59 9.47 8.89 13.87 13.65 0.13 4.21 0.29 8.46-0.14 12.66-1.07 4.47-5.43 7-9.35 8.7-8.95 3.63-18.65 4.77-28.18 5.77-2.81 0.39-5.38-1.05-7.78-2.28-10.99-6.28-19.31-16.02-28.01-24.97-3.4-1.17-4.64 4.05-8.05 2.72-12.16-4.22-24.12-9.06-36.25-13.39-2.99-0.59-6.06-0.23-9.07-0.29 0 3.65-0.01 7.31 0 10.97 9.72 8.04 19.62 16.61 25.5 27.99 3.08 5.97 4.28 14.25-0.95 19.41-7.25 7.04-17.84 8.62-27.41 10.12-0.95-0.97-1.9-1.93-2.83-2.88-4.84 0.26-9.45 1.87-14.15 2.9-7.39-3.6-14.88-8.13-19.17-15.39-2.23-3.61-3.12-7.83-3.38-12-15.09 9.34-32.9 13.66-50.56 13.71-5.96-10.13-12.89-20.4-23.27-26.43-3.97-2.34-8.51-3.47-13.07-3.81-1.41 3.97-5.03 6.38-8.52 8.38-10.45 5.72-21.82 9.53-33.1 13.24-6.42 0.78-13.02 0.49-19.38-0.76-17.8-3.07-35.7-7.08-52.08-14.92-9.77-4.79-19.41-11.31-24.65-21.16-5.25-9.77-4.99-22.68 1.95-31.58 6.99-9.05 17.81-13.96 28.37-17.51 19.08-6.15 39.17-8.23 59.08-9.53-2.78-32.58-5.58-65.15-8.35-97.73-0.17-26.43 1.68-52.93 6.17-78.99 5.8-33.5 16.41-66.56 34.54-95.49 19.73-31.91 49.27-57.55 83.55-72.74 13.21-4.47 26.95-8.84 37.96-17.74 2.04-1.85 5.67-4.42 3.49-7.52-9.06-12.15-18.21-24.36-25.22-37.85-2.66-5.5-5.45-11.32-5.22-17.59 0.09-7.7-0.12-15.41 0.1-23.11 0.75-1.12 1.76-2.01 2.69-2.98-8.49-19.21-16.32-38.76-22.09-58.98-3.57-12.89-6.39-26.15-6.11-39.6 1.92-1.77 3.79-3.59 5.62-5.45 6.94 1.27 12.79 5.53 18.68 9.16 15.5 10.3 30.11 21.86 44.63 33.47 2.24 2.2 5.65 1.02 8.44 1.13 16.78-1.53 33.79-3.26 49.79-8.86 5.37-2.08 11.04-4.59 14.55-9.37 1.97-2.51 1.64-5.98 3.4-8.59 6.8-11.34 13.95-22.51 22.35-32.72 4.98-5.7201 10.25-11.49 17.05-15.06m-91.76 594.41c-3.43 1.79-7.17 2.93-11.02 3.29 0.01 0.87 0.02 1.74 0.03 2.62 13.16 0.89 26.32 1.79 39.47 2.74-0.89-9.1-1.86-18.18-2.79-27.27-8.09 6.81-16.19 13.83-25.69 18.62m-219.64 41.48v2.73c5.73 0.8 11.47 1.58 17.2 2.42 2.32 0.3 4.72 0.6 7-0.12 6.03-1.69 12.08-3.34 18.12-5.05 0-0.68-0.01-2.05-0.01-2.73-14.13 0.18-28.2 1.91-42.31 2.75m143.77 5.48c2.88 2.71 5.69 5.51 8.55 8.24-0.01-2.75-0.01-5.49-0.01-8.23-2.85-0.02-5.7-0.02-8.54-0.01z"/>
<path d="m586.92 51.91c1.62-3.95 4.27-8.67 9.08-8.9 3.53 0.03 8.39-1.27 10.55 2.44 2.9 4.26 4.6 9.2 6.26 14.05 4.13 12.59 7.16 25.5 10.08 38.41 2.44 8.51 1.01 17.44 1.4 26.16 0.59 12.17-3.84 23.81-8.5 34.83-9.38 21.34-21.28 41.44-33.62 61.17-0.04 7.99-0.36 16.14 1.9 23.91 4.26 15.42 14.01 28.63 24.81 40.15 5.7 6 11.72 11.71 18.08 17.01 1.21 1.11 2.97 0.51 4.45 0.64 17.31-27.24 41.59-50.31 70.59-64.72 17.23-8.64 35.88-14.29 54.89-17.31 26.94-4.31 54.74-4.25 81.41 1.83 43.42 9.67 83.7 29.72 121.68 52.39 3.62 1.77 7.61 2.63 11.4 4-0.29-4.77 2.34-8.95 4.56-12.95 6.83-11.16 16.07-20.58 25.46-29.59 9.38-9.02 19.55-17.16 29.51-25.49 5.38-10.5 10.47-21.57 19.14-29.87 4.48-4.34 10.38-7.91 16.84-7.58 4.79 1.58 8.0499 5.8 11.28 9.46 6.72 8.09 12.54 16.86 18.17 25.72 0.6901 0.94 1.23 2.43 2.6901 2.33 10.08 1.05 20.14 2.32 30.23 3.17 21.18-8.77 42.13-18.15 63.23-27.12 1.12 1.07 2.25 2.15 3.4 3.23-0.01 1.22 0 2.45 0.02 3.68-15.68 16.49-26.05 37.16-34.98 57.87 6.5099 10.64 11.52 22.36 13.33 34.75 1.8099 10.74-1.01 21.47-2.75 32.02-1.49 5.32-2 11.93-6.98 15.3 1.78 9.38 4.95 19 2.9099 28.56-3.1399 4.83-8.2599 7.88-12.86 11.15-5.48 3.6-11.11 6.97-16.8 10.2-1.86 1.26-4.2001 0.81-6.25 0.51-15.92-3.32-31.85-6.61-47.76-9.93-7.55 21.62-19.31 41.74-34.49 58.89-15.11 17.1-33.24 31.43-52.86 43.01-14.03 6.01-28.29 11.49-42.4 17.32 4.1 14.92 8.93 29.73 15.96 43.55 5.55 10.74 12.52 21.36 22.86 28.03 2.61 1.81 5.9 2.49 8.24 4.71 15.72 14.6 31.29 29.39 46.08 44.93 10.54 11.22 21 22.65 29.55 35.5 3.51 5.64 7.3401 11.75 7.0601 18.67-0.0701 3.97 0.15 7.95-0.12 11.92-2.1801 6.86-8.77 11.48-15.66 12.76-8.4399 1.87-17.47 0.7-25.06-3.44-11.85-6.18-21.03-16.21-29.45-26.36-12.94 0.14-26.16-3.77-36.1-12.25-11.85-9.84-18.65-24.22-23.39-38.56-16.93-10.59-34.2-20.82-50.23-32.83-11.14-8.33-22.09-17.15-31.05-27.85-4.78-5.91-9.38-12.65-9.88-20.47-0.16-4.28-2.03-8.21-4.03-11.9-4.98-9.02-11.11-17.33-17.3-25.54-10-13.13-20.6-25.79-31.31-38.35-12.72 4.43-25.53 10.28-34.81 20.36-6.75 7.08-10.69 16.71-10.77 26.5-0.11 10.01-0.02 20.03-0.05 30.04-0.19 4.21 1.87 8.02 3.92 11.54 6.77 11.18 15.7 20.81 23.99 30.83 0.2 4.02 0.35 8.12-0.14 12.13-1.25 4.43-6.62 4.68-10.39 4.97-1.14 1.11-2.27 2.23-3.39 3.36-0.01 1.13 0 2.26 0.01 3.4-10.98 0.1-22.01-4.34-29.23-12.73-10.26-11.72-14.45-27.33-16.98-42.36-2.21-13.27-2.68-26.75-2.94-40.18-2.02-10.38-4.78-20.62-6.91-30.98 1.12-1.02 2.25-2.03 3.39-3.04 0.04-2.38 0.05-4.75 0.03-7.11-1.1 0.01-2.19 0.03-3.28 0.06-0.33 5.89-4.79 10.37-9.82 12.83-8.94 4.45-18.92 6.34-28.74 7.52-8.28-0.78-16.47-2.29-24.72-3.27 0.09 10.21-0.2 20.43 0.13 30.63 5.46 13.62 11.64 26.98 17.17 40.58 0.64 6.92-2.21 14.44-8.0699 18.47-5.95 4.23-13.46 5.32-20.58 5.62-3.41 0.54-6.21-1.79-8.91-3.45-8.5-5.66-13.88-15.05-16.19-24.84-2.8-10.76-2.06-21.95-2.15-32.95 0.03-19.68-0.07-39.37 0.05-59.05 0.78-11.1 9.22-19.62 17.52-26.11-0.13-1.52 0.2-3.19-0.77-4.49-7.73-12.27-14.87-25.21-18.43-39.37-3-11.28-1.55-23.03-1.89-34.54-27.42-20.75-48.82-49.01-62.34-80.55-4.12-9.43-7.54-19.16-10.48-29.01-1.48-4.51-0.6-9.3-0.83-13.95-0.33-8.51 2.79-16.62 6.1-24.31 9.62-21.29 22.97-40.59 35.89-59.95 2.53-10.13 4.81-20.35 6.95-30.57-3.09-12.5-7.02-24.81-10.2-37.29 0.4499-7.46 1.9799-14.94 4.5899-21.96z"/>
<path d="m1417.7 111.72c4.2-3.23 9.4199-4.77 14.66-5.06 8.16 15.28 11.85 32.4 15.41 49.2 3 14.95 5.2001 30.04 7.23 45.14 0.88 5.92 0.3201 11.93 0.49 17.89 17.59 3.56 35.18 7.18 52.76 10.77 2.53 0.65 5.04-0.37 7.48-0.96 37.52-10.1 76.57-13.2 115.32-12.62 22.27-0.52 44.82 1.69 66 8.92 30.76 10.11 57.72 29.94 78.63 54.45 13.07 15.04 24.01 31.82 33.59 49.26 1.74 2.97 2.22 6.44 3.14 9.72 5.08 19.83 10.16 39.66 15.31 59.47 4.84 2.21 7.1 7.37 9.5499 11.77 5.28 10.79 9.72 22.02 13.46 33.43 0.38 19.11-4.3999 38.32-13.54 55.11-8.7001 15.92-21.25 29.49-35.47 40.64-12.36 9.82-26.15 17.61-40.16 24.77-13.35 12.42-25.19 26.64-34.3 42.48-10.53 18.27-16.48 39.59-14.57 60.76 2.58 17.68 13.97 32.38 25.63 45.27-0.3401 3.76 0.87 7.93-0.9601 11.4-3.2899 3.86-8.6899 4.47-13.35 5.42-13.45-7.52-25.67-17.89-33.49-31.32-5.4399-9.33-8.61-19.92-9.54-30.67-1.62-22.7 1.1801-45.95 10.03-67.03 12.11-29.39 34.2-53.58 59.27-72.62 10.84-8.44 22.59-15.62 34.28-22.79 11.16-12.54 20.65-27.66 22.7-44.65 1.3-6.52-2.23-13.94-8.09-17.06-3.58 5.48-8.73 9.89-14.74 12.46-8.12 3.63-17.13 4.57-25.92 4.62 0.9601 0.94 1.9401 1.89 2.9501 2.85 0.5499 10.68-4.6901 20.5-10.76 28.9-15.15 20.47-35.32 36.43-55.18 52.07-1.27 2.27-1.41 5-2.39 7.4-4.21 11.59-13.71 20.33-24.08 26.51-8.78-1.53-18.2-2.74-25.63-8.07-4.38-3.12-3.3101-9.02-3.0601-13.64 1.14-7.67 5.7201-14.27 10.28-20.33 11.61-14.64 25.76-27.02 40.04-38.98 3.01-2.63 6.5499-4.76 8.87-8.1 4.21-5.84 8.55-11.59 12.76-17.43-8.6901-4.62-17.3-9.41-26.01-13.98-11.48 5.21-24.03 7.96-36.61 8.33-15.5 0.26-31.01-0.04-46.51 0.15-5.75 0.94-11.33 2.69-17.01 3.94-9.5699 2.95-19.69 1.06-29.52 1.65-3.02-2.73-5.89-5.61-8.7999-8.44 0.6699-5.57-2.13-12.91 3.1899-16.85 6.6899-4.77 15-6.3 22.89-7.98 23.8-4.28 48.04-5.11 72.15-6.09-1.54-3.78-4.0901-7.09-7.39-9.47-3.1801-2.21-6.5-5.12-10.65-4.51-8.47 0.54-17.29-1.34-25.42 1.74-20.17 6.01-40.37 11.92-60.54 17.93-10.44 35.22-21.04 70.41-31.47 105.64-0.6899 8.84-0.72 17.85-3.1 26.48-2.4399 9.66-7.38 19.3-16.02 24.77-7.23 4.71-16.08 5.82-24.52 5.66-9.64-7.52-13.92-19.58-17.23-30.91 10.64-16.59 19.23-34.74 23.34-54.09 4.27-19.01 2.09-38.59 2.6699-57.87-6.64 6.77-14.99 11.48-23.19 16.08-26.68 14.19-54.84 25.31-82.93 36.31-3.9299 1.7-8.33 2.53-11.68 5.32-6.1 4.8-12.19 9.79-17.07 15.88-1.84 2.21-3.11 4.83-3.85 7.61-6.63 4.86-13.59 9.45-21.29 12.42-5.98 2.41-12.92 1.94-18.73-0.72-5.7999-2.75-9.8099-8.34-11.68-14.34 1.64-7.41 6.22-13.79 10.83-19.68 12.02-14.4 27.01-25.94 42.22-36.77 23.55-16.43 48.4-30.92 73.69-44.48-4.03-29.18-13.2-58.56-31.77-81.88-14.47-28.62-28.6-57.41-43-86.07-5.4-2.72-8.88-7.87-12.67-12.38-10.91-14-20.61-28.88-30.55-43.57-10.32-11.02-21.4-21.5-29.94-34.03-2.33-3.4-4.4299-7.11-4.95-11.26 1-0.94 2.01-1.9 3.03-2.86 18.17 1.44 36.27 3.79 54.42 5.65 1.9601-7.8 10.26-10.93 16.83-13.97 21.54-8.46 44.45-12.63 67.13-16.8 3.8298-9.64 8.5898-19.55 17.1-25.91z"/>
<path d="m1413.5 715.45c1.34-2.4 4.23-2.37 6.63-2.41 0.6899 8.54 0.8099 17.51 4.54 25.4 1.1899 2.96 4.38 3.63 7.2599 3.31 11.18-9.09 22.38-18.14 33.58-27.21 3.5-3.45 10.41-0.72 10.27 4.39 0.88 21.49-4.38 42.73-11.49 62.87 0.96 0.88 1.96 1.8 2.96 2.71-0.78 13.26 1.51 26.34 2.8 39.48-0.52 10-2.2001 19.93-2.76 29.92 0.7 7.01 6.21 12.17 11.33 16.43 11.87 9.28 25.69 15.63 39.41 21.67 11.82 5.06 23.86 9.62 36.02 13.83 6.22 1.8 11.15 6.2 16.53 9.62 30.83 21.25 58.52 47.86 77.84 80.15 23.81 39.42 33.71 86.67 29.54 132.4-0.59 9.3199-1.39 18.62-1.83 27.95 29.53 8.7101 60.29 12.64 90.98 14.12 14.43-2.33 28.67-6.1499 42.21-11.72 14.86-6.22 29.01-15.14 39.1-27.9 7.9299-9.8999 12.92-22 14.78-34.52 0.75-6.25 1.9601-12.79-0.0699-18.91-3.58-13.7-7.0701-27.42-10.62-41.12 0.9299-0.9501 1.88-1.88 2.85-2.8101 4.05 0.1901 8.3199-0.5699 12.26 0.36 17.27 13.35 23.74 36.41 22.97 57.46-2.88 16.63-7.77 33.04-15.66 48.01-7.86 14.98-18.97 28.35-32.76 38.22-15.3 11.1-33.44 17.78-51.94 21.19-19.82 3.8401-40.09 3.26-60.18 3.1-30.02-1.72-60.04-3.7699-90-6.3999-21.8-2.04-43.61-4.24-65.22-7.78-8.4299-1.47-16.86-3.05-25.03-5.62-1.26 7.27-9.1801 9.8199-15.32 11.64-22.03 5.5699-44.97 5.02-67.51 5.6-10.05 2.42-20.01 5.28-30.02 7.85-2.85 1.02-5.58-0.75-8.21-1.58-5.64-2.36-12.01-5.4401-14.31-11.52-0.2899-3.63-0.5699-7.42 0.2001-10.98 2.52-4.7101 8.09-6.4 12.75-8.24 16.58-5.4601 34.01-7.67 51.26-9.9401 2.0599-4.2899 6.96-5.61 11.24-6.5499 7.02-1.54 14.23-1.75 21.38-2.13-11.84-26.87-17.66-56.27-17.57-85.6-6.25-4.3799-12.55-8.6899-18.79-13.07-1.3201-1.13-3.0601-1.2-4.67-1.34-1.53 23.31-4.67 46.64-10.96 69.18-3.88 12.99-8.8301 26.15-17.87 36.49-6.26 7.2201-15.62 12.15-25.34 11.44-5.6899-0.0601-10.63-3.8201-13.54-8.5-1.72-2.79-4.28-6.38-1.61-9.4301 6.5499-9.1699 16.31-15.29 25.16-22.02 1.41-5.6299 2.87-11.24 4.3401-16.85 0.6599-2.6699 1.62-5.33 1.46-8.12-0.4301-22.85-6.5601-45.18-14.7-66.39-2.0901 0.05-4.1901-0.1899-6.2201 0.27-36.17 12.93-73.87 20.86-111.46 28.4-5.8101 13.22-11.55 26.49-17.53 39.64-3.74 3.1899-7.83 6.08-11.94 8.78-6.4401 0.24-13.79-1.7101-17.4-7.49-3.95-6.3301-3.24-14.21-2.39-21.27 2.1-15.87 11.44-29.93 23.36-40.25 16.15-13.98 35.89-23.03 55.84-30.17 6.66-2.53 13.63-4.2 20.28-6.7 11.72-11.96 17.15-28.65 20.22-44.76-1.0399-6.8701-3.2999-13.57-4.2999-20.48-3.77-21.67-5.88-43.62-7.17-65.56 1.7101-18.15 3.8201-36.28 5.85-54.4-10.57-14.49-21.09-29.3-27.88-46.02-2.58-6.29-4.24-12.95-4.6599-19.74 4.15-5.85 9.6899-10.85 16.37-13.62 6.02-2.68 12.65-3.53 19.19-3.73 2.86-2.87 5.8-5.67 8.7201-8.48h32.35c0.9498-6.9502 1.2998-14.44 5.0998-20.55z"/>
<path d="m1110.8 779.32c7.4-4.56 14.84-9.05 22.28-13.55 0.92 0.89 1.85 1.79 2.8 2.7-9.2201 19.48-15.33 40.34-18.96 61.56-0.13 1.56-0.97 3.3199-0.0699 4.8199 6.12 12.39 11.8 25.87 10.5 40.01-1.55 8.75-3.66 17.4-5.22 26.14-0.1001 5.29 2.5599 10.35 2.3099 15.63-2.1 5.1-6.88 8.38-11 11.78-5.37 4.09-11 7.82-16.69 11.45-12.19-1.71-24.34-3.66-36.53-5.4-6.91 8.41-13.86 16.94-18.89 26.66-1.73 3.67-3.8 7.66-3.3099 11.82 5.33 16.33 10.68 32.7 14.29 49.51 1.2001 5.97 2.24 12 2.37 18.1 6.0801 0.1699 12.19-0.3201 18.25 0.2699 22.25 3.88 44.43 8.8 65.64 16.69 12.96 5.01 25.95 11.03 36.12 20.74 7.2001 6.86 12.47 16.58 11.48 26.78-0.63 5.14-4.98 8.8199-9.5399 10.66-7.54 3.0601-15.82 3.89-23.89 3.76-11.95-13.49-24.64-27.36-41.29-35-6.42-0.7899-12.98-0.1-19.45-0.33-17.07-0.1-34.16 0.2-51.22-0.15-20.4-5.89-40.59-12.55-60.94-18.62-2.14-0.5-4.34-0.24-6.49-0.24 0.01 0.65 0.05 1.9401 0.06 2.58 20.41 18.47 40.85 37.18 57.85 58.93 6.1499 8.26 12.46 17 14.62 27.26 1.1 3.75-0.86 7.35-2.3 10.71-2.61 5.6-7.36 10.79-13.74 11.73-9.48 1.0701-19.91-1.5399-26.5-8.7799-6.58-7.15-9.16-16.96-10.31-26.37-5.66-6.4601-12.46-11.77-19.11-17.15-26.31-20.73-54.05-39.56-81.39-58.86-2.74-7.91-11.01-11.4-18.53-13.18-11.79-2.73-24.01-3.41-36.06-3.11-7.4 2.98-12.18 9.98-17.28 15.8-6.13 6.97-10.5 15.42-17.57 21.56-2.99 2.89-5.98 5.78-8.97 8.6901 0.91 3.64 1.86 7.2799 2.7401 10.93-3.71 2.7001-7.4 5.42-11.12 8.12-10.32-2.5-20.49-5.6799-30.85-7.9299-10.33 1.36-20.56 3.5399-30.83 5.26 0.01 0.6799 0.03 2.0499 0.05 2.73 9.09 2.99 18.14 6.1599 27.03 9.76 6.15 2.58 12.4 5.1799 17.79 9.1899 16.64-10.73 33.23-21.54 49.9-32.21 7.55-2.96 15.44-5.04 23.1-7.72 3.5-1.3501 7.3101-0.65 10.98-0.8401 2.78 2.6801 5.53 5.4 8.35 8.0601 0.02 1.86 0.04 3.73 0.06 5.62-20.71 14.74-41.3 29.65-61.98 44.43-2.49 1.5901-4.31 4.2101-7.26 5.03-2.8 0.8101-3.5 4.14-3.55 6.7001 0.33 4.1 2.15 7.9299 2.67 12.02-2.01 6.9701-7.06 13.31-13.92 15.97-7.37 0.5599-15.32-0.5901-21.5-4.9-4.49-3.14-6.55-8.66-6.62-13.99-12.12 0.78-24.22 2.37-36.36 2.61-21.67-3.42-43.3-8.41-63.47-17.2-11.77-5.3399-23.32-12.22-31.36-22.56-5.54-7.09-8.75-15.99-8.75-25.01-0.19-29.69 1.36-59.62 8.18-88.62 5.27-21.84 13.77-43.82 29.71-60.16 2.06-2.1 3.36-4.77 4.96-7.2 12.83-19.89 28.73-38.06 48.11-51.8 28.71-20.75 64.63-30.24 99.82-29.21 37.26 1.79 74.53 3.52 111.8 5.3 14.65-9.15 29.84-18 46.6-22.68 8.5-2.56 17.45-1.68 26.19-1.82 1.69-14.07 3.56-28.19 7.49-41.84 1.75-5.75 3.74-11.61 7.47-16.41 2.12-2.76 5.66-5.23 9.28-3.91 7.13 1.83 14.68 4.15 19.89 9.66 2.37 2.41 3.27 5.75 3.72 9.01 21-2.87 42.42-5.56 62.18-13.67 6.9999-3.14 15.52-7.71 16.18-16.32m-465.08 320.72c-0.49 6.8999 3.64 13.17 8.52 17.67 7.74 6.99 17.39 11.37 27.03 15.07 6.71 2.24 13.34 5.1599 20.44 5.89-0.05-0.7001-0.13-2.11-0.18-2.8101-9.36-3.26-19.07-6.95-26.04-14.31-4.8101-4.89-7.55-11.66-7.47-18.52 8.55-9.26 18.29-18.44 30.83-21.71-0.02-0.86-0.03-1.71-0.03-2.5399-6.05-0.92-11.25-4.3401-16.33-7.52-6.33-4.2-12.44-8.73-18.35-13.49-2.2-1.71-4.24-4.09-7.3-3.8-3.67 15.37-7.52 30.69-11.12 46.07z"/>
<path d="m61.72 978.82c1.37-21.42 1.98-42.91 3.06-64.35 2.39 0.29 5.67-1.04 7.05 1.65 12.04 15.33 24.09 30.65 36.18 45.94 15.33 2.72 30.64 5.56 45.96 8.35 11.41-10.07 23.42-20.82 38.52-24.65 4.7-1.81 8.89 1.59 12.13 4.6 2.82 2.64 4.56 6.65 3.73 10.53-4.64 28.12-9.38 56.23-13.96 84.35-0.33 10.26-0.09 20.55-0.12 30.82-0.17 3.6399 3.12 6.0299 5.86 7.7999 6.72 3.98 14.26 6.35 21.72 8.53 17.53 4.9299 35.47 8.1799 53.4 11.26 4.85 1.0499 9.85 0.83 14.76 1.46 19.93 2.47 38.25 11.98 54.39 23.55 17.89 12.83 33.56 28.47 48.13 44.91 1.59 1.7401 3.15 3.54 4.22 5.67 10.35 19.42 19.6 39.47 26.77 60.29 7.03 20.77 12.12 42.46 12.35 64.49-0.02 10.94 0.13 21.89-0.07 32.83-1.72 13.78-3.81 27.52-5.6 41.3 18.28 1.51 36.48 3.97 54.75 5.64 22.96 0.08 46.54-3.7001 66.79-15.03 16.35-9.0701 29.49-23.44 37.83-40.12 2.45-4.25 2.93-9.2001 4.18-13.86 1.95-8.66 4.33-17.24 6.02-25.94-5.47-17.74-11.48-35.33-17.13-53.01 2.85-1.85 5.59-3.88 8.61-5.4399 2.86-0.35 5.75-0.11 8.63-0.16 14.28 10.78 23.88 27.14 27.02 44.7 3.05 16.85 2.02 34.31-1.56 51-4.26 19.35-13.78 37.54-27.58 51.78-16.72 17.34-38.48 29.09-61.11 36.79-14.51 2.35-29.1 4.27-43.65 6.45-5.99 0.6801-11.94 2.3301-18.01 1.8201-14.03-0.78-28.05-1.54-42.07-2.29-8.75-0.9299-17.3 1.91-25.99 2.36-4.76-0.5599-9.37-2.01-14.13-2.5399-7.72 2.3999-15.18 5.62-22.88 8.11-21.13-3.3101-42.19-7.3401-63.28-11-0.84 6.4199-6.47 10.51-11.68 13.5-12.57 6.97-26.59 10.67-40.35 14.49-3.27 7.84-9.15 14.6-16.63 18.67-9 4.9601-19.49 6.4301-29.64 6.3601-10.78-7.03-22.18-13.3-31.89-21.81-3.68-2.74-2.37-7.92-1.38-11.68 3.76-10.19 13.22-16.63 21.94-22.32 0.36-5.01 3.51-9.21 7.38-12.16 8.01-6.27 17.74-9.74 27.25-13 2.81-15.85 5.95-31.65 8.47-47.54-4.47-13.1-9.55-26.01-14.17-39.06-8.64-1.89-17.28-3.73-25.92-5.58-7.51 21.04-15.34 41.98-23.94 62.61-8.44 20.07-17.38 40-28.49 58.76-5.32 8.74-11.01 17.41-18.47 24.49-3.91 3.73-8.6 6.97-14.08 7.72-2.41 0.08-3.47 3.35-6.01 2.85-7.09-0.4199-14.3-1.75-20.66-5.0499-4.78-2.4501-8.65-7.0801-9.09-12.57-0.79-4.3199 2.45-7.7999 5.25-10.59 9.51-8.86 20.92-15.27 31.87-22.1 8.21-14.14 12.71-30.08 17.29-45.67 4.21-15.19 7.7-30.56 11-45.97 1.02-3.65 0.56-7.46-0.11-11.11-2.56-13.28-8.49-25.58-14.76-37.45-7.83-14.5-16.75-28.37-26.12-41.92-1.45-2.02-2.33-4.37-3.11-6.7001-8.43-23.98-16.23-48.21-22.1-72.95-4.35-18.6-7.73-37.53-8.01-56.68-4.38-0.0699-9.07-1-12.26-4.23-4.07-4-4.81-10.02-5-15.44-3.83-3.7001-7.62-7.42-11.47-11.1 0-3.7301 0-7.4501 0.04-11.17 0.95-0.9301 1.9-1.85 2.85-2.76-0.97-1-1.95-1.95-2.92-2.92 0.18-6.7899-0.55-13.74 1.47-20.33 3.85-13.72 11.44-25.96 18.53-38.18z"/>
<path d="m1216.5 1308.7c11.83-2.59 23.79-4.6599 35.67-7.09 3.63-0.89 7.23 0.67 10.71 1.6 7.14 2.1901 14.39 6.29 17.63 13.36 2.52 5.17 1.8199 11.08 1.9 16.65-1.7101 1.67-3.42 3.33-5.15 4.98-2.52-0.0499-5.03-0.0499-7.53-0.0399-5.9199-4.15-11.87-8.27-17.81-12.39-7.55 0.1699-15.33 2.13-21.21 7.0499-6.83 5.5901-10.76 13.89-13.07 22.24-3.33 12-3.83 24.56-3.76 36.95-0.36 10.04 1.87 19.92 2.91 29.87 1.5399 12.39 3.3099 24.76 4.7 37.17 0.17 40.76-9.98 81.3-27.85 117.84 3.05 16.69 6.22 33.36 9.36 50.04 1.35 5.9301 0.5601 12.06 0.77 18.09-0.17 4.6799 0.51 9.47-0.7 14.07-5.27 22.37-10.43 44.77-15.67 67.15-2.51 8.1799-0.84 16.81-1.37 25.21-3.4301 2.8101-4.3 7.39-5.4501 11.45-5.1799 21.55-6.96 43.74-10.01 65.62-7.67 9.11-19.32 13.83-30.52 16.9-8.4301-1.74-17.22-3.37-24.65-7.9299-4.21-2.36-2.74-7.61-2.97-11.53-0.42-5.1899 4.23-8.7999 7.95-11.58 5.33-3.6801 11.39-6.0801 17.44-8.28 0.8099-7.72 1.96-15.41 2.5299-23.15-0.0699-21.36 0.5901-42.9-2.7999-64.06-1.1901-5.0601-1.87-11.66-7.24-14.05-0.38 10.03 1.9299 19.94 2.3099 29.94-12.47 27.13-25.28 54.12-37.88 81.2-5.9399 1.54-11.79 3.48-17.78 4.77-6.84 0.2-13.68 0.0699-20.51 0.02-3.24-3.3201-6.62-6.48-9.9399-9.6901 0.15-4.3199-1.1899-9.8199 2.92-12.75 7.96-5.9199 18.12-7.36 27.55-9.5499 4.16-17.3 8.62-34.54 12.62-51.86-2.2799-6.0599-6.6799-10.99-10.31-16.24-8.79-11.8-18.02-23.25-27.27-34.68-5.01-6.39-10.72-12.29-14.75-19.39-4.75-7.9301-10.01-16.08-11.12-25.45-1.62-0.05-3.21-0.0601-4.81-0.0701-1.72 6.27-6.06 11.31-9.87 16.42-4.18 5.3199-8.57 10.49-13.11 15.51 1.61 16.45 3.37 32.88 5.06 49.32-0.62 0.03-1.87 0.08-2.49 0.11 0.82 0.8 1.64 1.5801 2.49 2.4301-0.0099 4.0699-0.02 8.14 0 12.23-0.85 0.8199-1.69 1.6801-2.52 2.55 0.81 0.7699 1.64 1.5499 2.48 2.36-0.99 25.34-2.44 50.7-5.3 75.91-1.51 12.15-3.07 24.41-6.72 36.15-1.5699 3.99-2.84 9.28-7.31 10.93-6.34 1.5599-12.55 3.75-18.96 4.99-8.2-1.15-16.48-2.74-24.13-6.01-3.28-1.37-7.04-4.12-6.04-8.2 1.32-7.8101 4.6-15.86 11.12-20.74 4.05-3.11 9.23-4.1399 14.23-4.3999-2.66-28.85-4.87-57.75-7.81-86.57-3.06 3.47-3.89 8.17-4.94 12.54-2.68 12.37-4.29 24.95-5.88 37.51-0.99 6.48-0.87 13.23-3.23 19.44-3.13 8.9301-7.31 17.88-14.38 24.39-5.12 4.78-12.02 7.5701-19.04 7.53-7.05-0.0701-14.98 0.96-20.98-3.59-2.83-2.3401-5.99-5.8401-4.61-9.8 1.9-7.54 5.33-15.31 11.98-19.79 3.83-2.6899 8.54-3.58 13.13-3.8099 1.57-12.51 3.6-24.97 4.97-37.5-0.05-22.01-1.48-44.33-7.85-65.52-4.2-13.48-11.02-27.09-23.09-35.14-7.19-4.85-15.9-7.03-24.5-7.08-14.08-0.1801-25.78-9.5-35.31-18.95-13.55-13.97-25.06-29.95-33.9-47.29-16.24-30.51-30.65-62.65-36.4-96.95-0.68-4.89-1.13-9.84-2.94-14.47-4.55-15.04-5.8-30.85-5.88-46.49 2.54-3.3101 5.08-6.6 7.63-9.89 2.14 0.1901 4.69-0.58 6.44 1.0601 13.37 9.95 26.78 19.87 40.15 29.84 1.69 1.61 4.1 1.0599 6.22 1.12 20.03-0.4401 40.44-2.47 59.13-10.15 8.23-3.46 16.1-8.09 22.48-14.4 3.35-3.8099 8.46-5.1 12.77-7.46 1.22 1.35 3.06 2.61 2.41 4.74-1.58 16.47-3.37 32.93-5.05 49.39 11.99-11.06 24.54-21.6 38.37-30.32 18.96-12.16 40.41-21.16 62.99-23.27 19.73-1.52 39.67 0.84 58.76 5.9299 31.93 8.5701 60.97 25.94 85.74 47.61 13.85 12.06 26.53 25.43 38.24 39.56 9.48-19.85 12.9-42.08 12.64-63.94-0.21-7.9299 0.5699-15.93-0.8-23.79-1.37-11.06-3-22.09-4.2-33.17 0.01-21.2 1.89-42.86 9.6899-62.76 4.7599-12 12.34-23.36 23.28-30.51z"/>
<path d="m1401.6 1393.2c1.89-1.8199 3.77-3.65 5.62-5.5 3.51-0.1599 8.1-0.74 9.98 3.0701 4.0601 7.0299 6.04 15.22 6.99 23.21-1.2899 23.03-11.85 44.19-22.52 64.19 0.72 0.03 2.14 0.0901 2.85 0.13 8.39 8.27 16.92 16.41 25.37 24.63 6.4299-12.98 17.76-23.07 30.78-29.2 13.71-6.54 28.83-9.53 43.88-10.97 7.46-0.53 14.98-1.3 22.47-0.75 36.35 6.1899 72.63 12.78 108.99 18.85 18.04-1.13 36.06-3.25 53.86-6.42 10.45-2.23 21.41-4.13 30.6-9.8999 3.5-3.29 8.47-3.9701 12.28-6.8101 16.72-10.94 31.82-24.13 47.25-36.77 5.05-2.22 10.51-3.47 15.71-5.33 10.56-2.3201 22.71 3.2 26.88 13.42 0.37 12.86-2.48 25.68-2.3099 38.49 12.02 11 24.25 21.78 36.35 32.69 13.64 1.39 27.4 2.78 40.63 6.58 4.01 1.37 9.01 2.74 10.52 7.25-4.0801 4.01-9.04 6.92-13.87 9.9-16.8 10.03-34.09 19.21-51.38 28.38-0.0601 8.61-4.86 16.41-11.21 21.93-10.6 9.23-23.84 14.62-36.92 19.31-4.01 8.62-13.13 13.95-22.57 13.73-1.83-1.8099-3.6499-3.62-5.4199-5.4399-1.4301 0.87-2.53 2.6899-4.35 2.58-5.3701 0.0801-11.43-0.0599-15.68-3.78-2.14-1.7799-2.59-4.6299-3.02-7.1799-0.86-0.02-1.7-0.02-2.51 0-0.48 13.02-8.41 24.14-16.72 33.55-11.96 13.23-26.17 24.19-40.68 34.47-2.1899 1.46-4.24 3.37-6.9099 3.85-13.62 3.03-27.25 6.17-40.49 10.58-4.92 1.7201-10.06 3.4-13.92 7.05-0.15 10.32-0.03 20.64-0.0699 30.97 0.11 10.01-0.54 20.14 1.37 30.04 3.5199 20.46 14.45 38.99 28.49 54.03 1.95 1.7 0.9399 4.5299 1.24 6.8099-7.5801 3.64-15.12 7.36-22.7 10.98-0.9099-0.9199-1.7799-1.7999-2.64-2.6699-1.9199-0.0601-3.83-0.0801-5.71-0.0701-0.03 0.63-0.09 1.88-0.12 2.5 6.78 1.1901 11.76 6.4 16.16 11.31 2.23 2.6599 4.7 5.22 6.4 8.2799 0.1 4.0901 0.38 8.26-0.2201 12.33-1.39 2.7999-4.49 4.13-7.2 5.33-9 3.38-18.6 4.7101-28.07 6.0601-3.9601 0.47-8.15 1.46-12-0.04-6.2101-2.24-10.7-7.46-14.19-12.83-6.28-9.92-10.28-21.07-13.68-32.24-3.8799-12.84-6.7599-25.96-9.2899-39.12-0.99 0.9099-1.97 1.83-2.92 2.7799-9.6799-0.08-19.36 0.05-29.03-0.0699-3.35-4.62-5-10.15-6.76-15.49-6.1799-20-10.72-40.45-15.32-60.85-3.4301-14.39-5.4301-29.1-9.51-43.34-1.86-6.45-3.84-12.97-7.3099-18.75-1.14-2-2.9701-3.4299-4.9801-4.4299-15.25 5.3199-29.83 13.78-40.1 26.47-12.93 15.7-17.71 36.79-16.69 56.78 3.5699 15.34 7.45 30.62 11.06 45.96-4.83 2.58-9.35 5.75-14.3 8.0701-7.51 0.3099-15.79-0.17-22-4.89-4.86-3.67-6.51-10.14-5.91-15.96 2.4399-32.01 5.08-64.01 7.5699-96.03 1.52-12.99-0.46-26.03-0.72-39.03-0.3199-14.01-2.5599-28.11-0.1699-42.04 2.0399-13.87 6.1499-27.32 9.97-40.76-4.7001-12.94-14.38-23.29-23.97-32.84-4.9501-4.8-10.12-9.35-15.44-13.72 0.0601-2.4401-0.5-5.0801 0.85-7.25 5.72-11.05 11.4-22.11 17.1-33.16 2.9401-5.87 6.4301-11.57 7.9801-18.02 2.9898-11.39 2.1798-23.25 2.2998-34.89m140.99 267.54c-2.6799 10.46-5.52 20.89-8.0399 31.39 1.83 15.22 4.38 30.52 9.34 45.08 2.11 5.0801 4.3099 11.63 10.4 12.97-0.28-7.8999-1.5-15.72-2.1801-23.59-2.14-20.57-4.24-41.15-6.38-61.72 0.9301-0.9301 1.86-1.86 2.84-2.74-1.0499-1.01-2.0499-1.97-3.0499-2.9501-1.0701 0.3401-3.0802-0.2399-2.9301 1.5601z"/>
<path d="m599.97 1515.8c5.28-3.0499 10.61-6.2899 16.65-7.5399 2.09 2.9299 4.1 5.9299 6.15 8.8999 0.08 9.9701-1.63 19.84-2.71 29.74-2.82 20.97-6.21 42.01-12.78 62.19-3.29 9.91-7.5601 19.71-14.41 27.71-3.45 10.29-6.18 20.84-9.37 31.23-0.93 3.62-2.51 7.13-2.8 10.9 0.29 17.08-2.21 34.06-2.85 51.11 3.7 8.86 7.98 17.48 11.89 26.26 12.78-1.9399 25.56-3.88 38.35-5.73 3.62-0.49 5.91 3.09 7.66 5.72 5.26 9.01 8.13 19.17 11.01 29.13 12.36 1.88 24.81 4.27 36.28 9.42 6.95 3.16 13.84 7.51 17.76 14.28 2.05 3.4099 2.91 7.38 3.04 11.34-4.07 2.77-7.84 5.97-12.01 8.5601-6.46 0.97-12.64-1.7001-18.86-2.9501-4.95-0.96-9.81-3.2-14.93-2.4399-38.88 3.2799-77.88 5.88-116.5 11.7-5.58 0.53-10.92 3.2-16.61 2.37-13.37-1.34-25.95-6.7-37.69-12.96-1.29-0.62-2.59-1.6801-4.09-1.0901-14.42 2.7301-28.81 5.7001-43.25 8.3301-12.68 0.78-25.3-1.14-37.92-1.96-16.55-1.16-33.07-3.01-49.64-3.7401-5.25 4.03-11 7.52-17.23 9.8201-3.83 1.29-7.98 2.2999-12 1.36-7.42-1.62-14.84-3.22-22.25-4.85-2.91-0.8201-5.91-0.09-8.83 0.1799-15.01 1.63-30.01 3.2301-45.01 4.88-1.48 0.16-3 0.23-4.39-0.37-21.81-8.2999-43.65-16.55-65.06-25.87-6.32-2.89-12.87-5.51-18.61-9.47-6.38-6.6899-13.12-13.02-19.75-19.45-14.34 11.43-30.34 21.35-48.14 26.28-10.12 2.87-20.78 3.4301-31.21 2.4501-11.84-1.27-23.01-7.22-30.72-16.27-10.51-12.39-15.77-28.3-18.84-44.01-1.07-21.35 2.77-43.51 14.11-61.89 9.52-15.76 24.09-27.95 40.24-36.48 3.71-1.72 7.25-4.5601 11.54-4.28 2.95 2.97 5.99 5.85 9 8.77 0.01 1.9401 0.02 3.91 0.02 5.9-12.9 9.7-24.61 21.35-32.73 35.4-6.5 11.11-10.58 23.62-11.82 36.43-0.69 7.4301-1.14 15.28 1.98 22.28 4.53 10.5 14.32 17.65 24.39 22.36 8.67 0.42 16.87-3.78 23.42-9.15 12.16-10.36 20.25-24.5 27.27-38.63 1.53-2.8099 2.33-6.0699 4.5-8.47 23.35-23.48 52.81-40.42 84.2-50.66 33.98-11.18 69.94-15.29 105.61-15.4 7.72-0.55 15.31-2.3601 23.03-2.8401 14.66 1.16 29.3 2.5801 43.96 3.85 10.33 0.64 20.64 2.55 31.01 1.65 17.56-0.85 34.85-6.5699 49.44-16.38 12.09-8.01 22.36-18.5 31.11-30.01-4.32-8.7899-6.69-18.35-8.94-27.83-2.8-12.27-4.98-24.67-6.94-37.09-1.14-7.49-2.81-15.01-2.02-22.62 3.08-6.98 10.24-11.72 17.89-11.72 9.12 6.78 17.98 13.99 27.34 20.4 12.74-0.77 25.45-1.95 38.19-2.75 5.27 0.53 10.41 2.01 15.66 2.8101 9.17-6.6 18.55-12.94 28.21-18.81z"/>
</svg>